<svg width="26" height="26" viewBox="0 0 26 26" fill="none" xmlns="http://www.w3.org/2000/svg">
<path d="M16.0035 12.9999L25.3506 3.65236C25.6077 3.39504 25.7496 3.05175 25.75 2.68569C25.75 2.31943 25.6081 1.97573 25.3506 1.71882L24.5315 0.899919C24.274 0.641993 23.9307 0.500732 23.5642 0.500732C23.1984 0.500732 22.8551 0.641993 22.5976 0.899919L13.2504 10.2469L3.90285 0.899919C3.64573 0.641993 3.30224 0.500732 2.93598 0.500732C2.57012 0.500732 2.22663 0.641993 1.96951 0.899919L1.15 1.71882C0.616667 2.25216 0.616667 3.11963 1.15 3.65236L10.4974 12.9999L1.15 22.3471C0.892683 22.6048 0.751016 22.9481 0.751016 23.3141C0.751016 23.6802 0.892683 24.0235 1.15 24.281L1.96931 25.0999C2.22642 25.3576 2.57012 25.4991 2.93577 25.4991C3.30203 25.4991 3.64553 25.3576 3.90264 25.0999L13.2502 15.7528L22.5974 25.0999C22.8549 25.3576 23.1982 25.4991 23.564 25.4991H23.5644C23.9305 25.4991 24.2738 25.3576 24.5313 25.0999L25.3504 24.281C25.6075 24.0237 25.7494 23.6802 25.7494 23.3141C25.7494 22.9481 25.6075 22.6048 25.3504 22.3473L16.0035 12.9999Z" fill="black"/>
</svg>
